<svg width="19" height="17" viewBox="0 0 19 17" fill="none" xmlns="http://www.w3.org/2000/svg">
<path d="M18.1913 2.125H4.25895L3.96181 0.664062C3.89578 0.298828 3.56563 0 3.20247 0H0.396181C0.165076 0 0 0.199219 0 0.398438V0.664062C0 0.896484 0.165076 1.0625 0.396181 1.0625H2.97136L5.28242 13.4473C4.95227 13.8457 4.75418 14.3438 4.75418 14.875C4.75418 16.0703 5.6786 17 6.86715 17C8.02267 17 8.98011 16.0703 8.98011 14.875C8.98011 14.5098 8.84805 14.1445 8.68298 13.8125H13.4702C13.3051 14.1445 13.206 14.5098 13.206 14.875C13.206 16.0703 14.1305 17 15.319 17C16.4745 17 17.432 16.0703 17.432 14.875C17.432 14.3105 17.1679 13.7461 16.7717 13.3809C16.7057 13.0156 16.3755 12.75 16.0123 12.75H6.23986L5.84368 10.625H16.7717C17.1679 10.625 17.465 10.3926 17.564 9.99414L18.9837 3.08789C19.0827 2.58984 18.7196 2.125 18.1913 2.125ZM7.92363 14.875C7.92363 15.4727 7.4284 15.9375 6.86715 15.9375C6.27287 15.9375 5.81066 15.4727 5.81066 14.875C5.81066 14.3105 6.27287 13.8125 6.86715 13.8125C7.4284 13.8125 7.92363 14.3105 7.92363 14.875ZM15.319 15.9375C14.7247 15.9375 14.2625 15.4727 14.2625 14.875C14.2625 14.3105 14.7247 13.8125 15.319 13.8125C15.8803 13.8125 16.3755 14.3105 16.3755 14.875C16.3755 15.4727 15.8803 15.9375 15.319 15.9375ZM16.5736 9.5625H5.64559L4.45704 3.1875H17.8942L16.5736 9.5625Z" fill="white"/>
</svg>
