<svg width="17" height="17" viewBox="0 0 17 17" fill="none" xmlns="http://www.w3.org/2000/svg">
<path d="M16.8754 15.9805L12.5901 11.7036C12.5237 11.6373 12.424 11.6041 12.3244 11.6041H11.959C13.1216 10.3442 13.8192 8.71965 13.8192 6.89615C13.8192 3.11653 10.6966 0 6.90962 0C3.0894 0 0 3.11653 0 6.89615C0 10.7089 3.0894 13.7923 6.90962 13.7923C8.70347 13.7923 10.3644 13.0961 11.5936 11.9688V12.3003C11.5936 12.433 11.6268 12.5324 11.6932 12.5987L15.9785 16.8757C16.1446 17.0414 16.3771 17.0414 16.5432 16.8757L16.8754 16.5441C17.0415 16.3784 17.0415 16.1463 16.8754 15.9805ZM6.90962 12.7314C3.65413 12.7314 1.06302 10.1453 1.06302 6.89615C1.06302 3.68016 3.65413 1.06095 6.90962 1.06095C10.1319 1.06095 12.7562 3.68016 12.7562 6.89615C12.7562 10.1453 10.1319 12.7314 6.90962 12.7314Z" fill="white"/>
</svg>
