<svg width="14" height="14" viewBox="0 0 14 14" fill="none" xmlns="http://www.w3.org/2000/svg">
<path d="M13.5068 9.625L10.5205 8.33984C10.411 8.3125 10.3014 8.28516 10.1918 8.28516C9.91781 8.28516 9.67123 8.39453 9.53425 8.58594L8.32877 10.0625C6.41096 9.13281 4.87671 7.60156 3.94521 5.6875L5.42466 4.48438C5.61644 4.34766 5.72603 4.10156 5.72603 3.82812C5.72603 3.71875 5.69863 3.60938 5.67123 3.5L4.38356 0.519531C4.24658 0.21875 3.94521 0 3.61644 0C3.53425 0 3.47945 0.0273438 3.42466 0.0273438L0.657534 0.683594C0.273973 0.765625 0 1.09375 0 1.50391C0 8.42188 5.61644 14 12.5205 14C12.9315 14 13.2603 13.7266 13.3699 13.3438L14 10.582C14 10.5273 14 10.4727 14 10.3906C14 10.0625 13.8082 9.76172 13.5068 9.625ZM12.4931 13.125C6.08219 13.125 0.876712 7.92969 0.876712 1.53125L3.58904 0.902344L4.84931 3.82812L2.84931 5.46875C4.19178 8.28516 5.72603 9.81641 8.57534 11.1562L10.1918 9.16016L13.1233 10.418L12.4931 13.125Z" fill="#969696"/>
</svg>
